<svg width="116" height="47" viewBox="0 0 116 47" fill="none" xmlns="http://www.w3.org/2000/svg">
<g clip-path="url(#clip0_4_57)">
<path d="M47.5801 23.32V4H52.5901V16.13C54.0701 13.81 56.5501 12.55 59.5401 12.55C64.5901 12.55 69.9001 16.17 69.9001 23.29C69.9001 29.9 65.2701 34.45 58.6601 34.45C52.0501 34.45 47.5801 30.07 47.5801 23.33V23.32ZM64.8401 23.49C64.8401 19.82 62.3501 17.22 58.6901 17.22C55.0301 17.22 52.5901 19.83 52.5901 23.49C52.5901 27.15 55.0301 29.76 58.6901 29.76C62.3501 29.76 64.8401 27.15 64.8401 23.49Z" fill="#05006E"/>
<path d="M73 23.49C73 17.17 77.63 12.54 84.2 12.54C89.84 12.54 93.97 15.95 94.98 20.88H89.93C89.04 18.65 86.94 17.22 84.2 17.22C80.53 17.22 78.05 19.83 78.05 23.49C78.05 27.15 80.54 29.76 84.2 29.76C86.94 29.76 89.04 28.33 89.93 26.1H94.98C93.97 31.03 89.84 34.44 84.2 34.44C77.63 34.44 73 29.81 73 23.49Z" fill="#05006E"/>
<path d="M97.97 27.75H103.02C103.06 29.14 104.28 30.07 106.73 30.07C109.3 30.07 110.4 29.02 110.4 27.75C110.4 26.15 108.55 25.94 106.31 25.64C103.11 25.22 98.39 24.67 98.39 19.57C98.39 15.32 101.63 12.54 106.64 12.54C111.65 12.54 114.85 15.4 114.98 19.07H110.01C109.88 17.81 108.7 16.92 106.73 16.92C104.54 16.92 103.44 17.97 103.44 19.2C103.44 20.8 105.34 21.05 107.57 21.35C110.35 21.73 115.44 22.28 115.44 27.46C115.44 31.67 112.03 34.45 106.72 34.45C101.41 34.45 98.09 31.63 97.96 27.75" fill="#05006E"/>
<path d="M19.2199 19.22V0L5.62988 5.63L19.2199 19.22Z" fill="#E35B62"/>
<path d="M19.22 19.22H38.44L32.81 5.63L19.22 19.22Z" fill="#0088CC"/>
<path d="M32.81 5.63L19.22 0V19.22L32.81 5.63Z" fill="#DE1380"/>
<path d="M5.63 5.63L0 19.22H19.22L5.63 5.63Z" fill="#FC833F"/>
<path d="M19.22 38.44L32.81 32.81L19.22 19.22V38.44Z" fill="#006A8F"/>
<path d="M38.44 19.22H19.22L32.81 32.81L38.44 19.22Z" fill="#05006E"/>
<path d="M19.2199 19.22L5.62988 32.81L19.2199 38.44V19.22Z" fill="#02AFAF"/>
<path d="M0 19.22L5.63 32.81L19.22 19.22H0Z" fill="#F6C970"/>
<g opacity="0.3">
<mask id="mask0_4_57" style="mask-type:luminance" maskUnits="userSpaceOnUse" x="0" y="0" width="39" height="39">
<path d="M38.44 0H0V38.44H38.44V0Z" fill="white"/>
</mask>
<g mask="url(#mask0_4_57)">
<mask id="mask1_4_57" style="mask-type:luminance" maskUnits="userSpaceOnUse" x="0" y="0" width="39" height="39">
<path d="M38.44 0H0V38.44H38.44V0Z" fill="white"/>
</mask>
<g mask="url(#mask1_4_57)">
<path d="M19.22 21.16L32.81 32.81L19.22 19.22V21.16Z" fill="white"/>
<path d="M17.8501 20.6L19.2201 38.44V19.22L17.8501 20.6Z" fill="white"/>
<path d="M17.2799 19.22L5.62988 32.81L19.2199 19.22H17.2799Z" fill="white"/>
<path d="M17.85 17.85L0 19.22H19.22L17.85 17.85Z" fill="white"/>
<path d="M19.2199 17.28L5.62988 5.63L19.2199 19.22V17.28Z" fill="white"/>
<path d="M20.6 17.85L19.22 0V19.22L20.6 17.85Z" fill="white"/>
<path d="M21.16 19.22L32.81 5.63L19.22 19.22H21.16Z" fill="white"/>
<path d="M20.6 20.6L38.44 19.22H19.22L20.6 20.6Z" fill="white"/>
</g>
</g>
</g>
<path d="M19.2701 17.33C20.3301 17.33 21.1901 18.19 21.1901 19.25C21.1901 20.31 20.3301 21.16 19.2701 21.16C18.2101 21.16 17.3501 20.3 17.3501 19.25C17.3501 18.2 18.2101 17.33 19.2701 17.33Z" fill="white"/>
<path d="M19.27 17.97C19.98 17.97 20.55 18.54 20.55 19.25C20.55 19.96 19.98 20.53 19.27 20.53C18.56 20.53 17.99 19.96 17.99 19.25C17.99 18.54 18.56 17.97 19.27 17.97Z" fill="#000054"/>
<path d="M52.9401 42.52H48.5501V45.97H47.6201V38.46H48.5501V41.69H52.9401V38.46H53.8801V45.97H52.9401V42.52Z" fill="#041480"/>
<path d="M58.0601 42.99H56.5601V45.97H55.6301V38.46H58.6501C60.0201 38.46 61.0001 39.34 61.0001 40.72C61.0001 42.1 60.0801 42.81 59.0501 42.9L61.0801 45.96H59.9801L58.0701 42.98L58.0601 42.99ZM58.5401 39.29H56.5701V42.16H58.5401C59.4301 42.16 60.0401 41.56 60.0401 40.72C60.0401 39.88 59.4301 39.29 58.5401 39.29Z" fill="#041480"/>
<path d="M65.4902 44.2C65.9902 44.75 66.8002 45.27 67.8602 45.27C69.2002 45.27 69.6302 44.55 69.6302 43.98C69.6302 43.08 68.7202 42.83 67.7302 42.56C66.5202 42.24 65.1902 41.91 65.1902 40.43C65.1902 39.19 66.2902 38.35 67.7702 38.35C68.9202 38.35 69.8102 38.73 70.4402 39.4L69.8802 40.09C69.3202 39.47 68.5302 39.19 67.7102 39.19C66.8102 39.19 66.1702 39.67 66.1702 40.38C66.1702 41.13 67.0402 41.36 67.9902 41.62C69.2202 41.95 70.6102 42.33 70.6102 43.91C70.6102 45 69.8702 46.12 67.8402 46.12C66.5302 46.12 65.5802 45.62 64.9602 44.93L65.5102 44.22L65.4902 44.2Z" fill="#041480"/>
<path d="M71.6401 43.24C71.6401 41.66 72.6801 40.39 74.3301 40.39C75.9801 40.39 77.0201 41.66 77.0201 43.24C77.0201 44.82 75.9801 46.1 74.3301 46.1C72.6801 46.1 71.6401 44.82 71.6401 43.24ZM76.1301 43.24C76.1301 42.14 75.4901 41.15 74.3301 41.15C73.1701 41.15 72.5201 42.14 72.5201 43.24C72.5201 44.34 73.1701 45.35 74.3301 45.35C75.4901 45.35 76.1301 44.36 76.1301 43.24Z" fill="#041480"/>
<path d="M78.6302 41.27H77.7302V40.53H78.6302V40.11C78.6302 38.98 79.2602 38.34 80.2102 38.34C80.5302 38.34 80.8202 38.4 81.0302 38.53L80.8202 39.16C80.6802 39.08 80.5302 39.04 80.3402 39.04C79.7902 39.04 79.4802 39.42 79.4802 40.11V40.53H80.5802V41.27H79.4802V45.97H78.6402V41.27H78.6302Z" fill="#041480"/>
<path d="M81.7501 44.8299V41.2699H80.8501V40.5299H81.7501V39.0399H82.5901V40.5299H83.6901V41.2699H82.5901V44.6499C82.5901 45.0599 82.7701 45.3499 83.1401 45.3499C83.3801 45.3499 83.6001 45.2499 83.7101 45.1199L83.9601 45.7499C83.7501 45.9499 83.4401 46.0999 82.9501 46.0999C82.1501 46.0999 81.7501 45.6399 81.7501 44.8299Z" fill="#041480"/>
<path d="M88.1802 41.5999L86.7602 45.9699H85.9202L84.1902 40.5299H85.0702L86.4002 44.8699L87.8302 40.5299H88.5502L89.9802 44.8699L91.3102 40.5299H92.1902L90.4602 45.9699H89.6202L88.2002 41.5999H88.1802Z" fill="#041480"/>
<path d="M96.5601 45.35C96.1101 45.85 95.4901 46.1 94.7601 46.1C93.8401 46.1 92.8601 45.48 92.8601 44.3C92.8601 43.12 93.8401 42.51 94.7601 42.51C95.5001 42.51 96.1201 42.75 96.5601 43.25V42.27C96.5601 41.54 95.9701 41.12 95.1901 41.12C94.5401 41.12 94.0101 41.36 93.5201 41.87L93.1301 41.28C93.7201 40.67 94.4101 40.38 95.3001 40.38C96.4501 40.38 97.4101 40.9 97.4101 42.22V45.96H96.5701V45.34L96.5601 45.35ZM96.5601 43.8C96.2301 43.35 95.6601 43.12 95.0601 43.12C94.2701 43.12 93.7201 43.62 93.7201 44.31C93.7201 45 94.2701 45.49 95.0601 45.49C95.6601 45.49 96.2301 45.26 96.5601 44.81V43.79V43.8Z" fill="#041480"/>
<path d="M99.1001 40.5299H99.9401V41.4099C100.38 40.8399 101.01 40.4199 101.75 40.4199V41.2899C101.65 41.2699 101.55 41.2599 101.41 41.2599C100.89 41.2599 100.18 41.6899 99.9301 42.1299V45.9799H99.0901V40.5399L99.1001 40.5299Z" fill="#041480"/>
<path d="M105.18 40.4C106.82 40.4 107.79 41.68 107.79 43.32V43.53H103.39C103.46 44.55 104.18 45.41 105.35 45.41C105.97 45.41 106.6 45.16 107.03 44.72L107.44 45.27C106.9 45.81 106.17 46.1 105.28 46.1C103.67 46.1 102.51 44.94 102.51 43.24C102.51 41.66 103.64 40.39 105.19 40.39L105.18 40.4ZM103.39 42.91H106.96C106.95 42.1 106.41 41.1 105.17 41.1C104.01 41.1 103.44 42.08 103.39 42.91Z" fill="#041480"/>
</g>
<defs>
<clipPath id="clip0_4_57">
<rect width="115.45" height="46.11" fill="white"/>
</clipPath>
</defs>
</svg>
